<?xml version="1.0" standalone="no"?><!DOCTYPE svg PUBLIC "-//W3C//DTD SVG 1.1//EN" "http://www.w3.org/Graphics/SVG/1.1/DTD/svg11.dtd"><svg t="1713252398929" class="icon" viewBox="0 0 1024 1024" version="1.1" xmlns="http://www.w3.org/2000/svg" p-id="964" xmlns:xlink="http://www.w3.org/1999/xlink" width="200" height="200"><path d="M618.02 815H390.06c-15.59 0-31.04-5.19-43.51-14.62-31.38-23.72-57.43-55.36-75.34-91.5-18.46-37.24-28.22-79.32-28.22-121.69s10.34-86.92 29.92-125.04c12.4-24.15 36.96-39.16 64.09-39.16h334.08c27.13 0 51.69 15 64.09 39.16 19.57 38.12 29.92 81.36 29.92 125.04s-9.76 84.44-28.22 121.69c-17.91 36.13-43.96 67.77-75.34 91.5-12.47 9.43-27.92 14.62-43.51 14.62zM337 453c-15.83 0-30.16 8.76-37.4 22.86-17.4 33.9-26.6 72.4-26.6 111.34 0 75.12 34.26 145.86 91.65 189.25 7.29 5.51 16.32 8.55 25.42 8.55h227.96c9.1 0 18.12-3.04 25.42-8.55 57.39-43.39 91.65-114.14 91.65-189.25 0-38.93-9.2-77.43-26.6-111.34-7.24-14.1-21.57-22.86-37.4-22.86H337z" fill="#333333" p-id="965"></path><path d="M600.99 444c-1.99 0-4.01-0.4-5.94-1.24-7.6-3.29-11.1-12.12-7.82-19.72l72.01-166.57c8.66-20.02 25.45-35.58 46.07-42.69l89.81-30.97c7.83-2.7 16.37 1.46 19.07 9.29 2.7 7.83-1.46 16.37-9.29 19.07l-89.81 30.97a47.932 47.932 0 0 0-28.31 26.24l-72.01 166.57c-2.45 5.66-7.97 9.05-13.78 9.05zM387.34 441.53c-6.17 0-11.96-3.84-14.14-9.99l-31.46-88.7c-2.77-7.81 1.32-16.38 9.12-19.15 7.81-2.77 16.38 1.32 19.15 9.12l31.46 88.7c2.77 7.81-1.32 16.38-9.12 19.15-1.66 0.59-3.35 0.87-5.01 0.87z" fill="#333333" p-id="966"></path><path d="M209.93 386.59c-1.09 0-2.2-0.12-3.3-0.37-8.08-1.82-13.16-9.84-11.34-17.93 6.16-27.4 21.1-53.91 43.2-76.67 22.32-22.99 51.09-41.16 83.2-52.55s65.9-15.4 97.72-11.61c31.5 3.75 59.8 14.93 81.85 32.32 6.5 5.13 7.62 14.56 2.48 21.07-5.13 6.5-14.56 7.62-21.07 2.48-17.7-13.97-40.81-22.99-66.81-26.08-27.26-3.25-56.36 0.25-84.14 10.1s-52.58 25.47-71.7 45.17c-18.25 18.79-30.5 40.35-35.45 62.35-1.57 6.97-7.76 11.71-14.62 11.71z" fill="#333333" p-id="967"></path><path d="M262.87 381.12a15.2 15.2 0 0 1-3.92-0.52c-8-2.16-12.73-10.39-10.57-18.39 5.45-20.17 23.82-38.02 47.95-46.58 24.13-8.56 49.65-6.27 66.59 5.96 6.72 4.85 8.23 14.23 3.38 20.94-4.85 6.72-14.23 8.23-20.94 3.38-10.16-7.34-26.9-6.29-38.99-2.01-12.09 4.29-25.75 14.03-29.02 26.13-1.81 6.69-7.86 11.09-14.47 11.09z" fill="#333333" p-id="968"></path><path d="M354.67 348.56a15.2 15.2 0 0 1-3.92-0.52c-8-2.16-12.73-10.39-10.57-18.39 5.45-20.17 23.82-38.02 47.95-46.58 24.13-8.56 49.65-6.27 66.59 5.96 6.72 4.85 8.23 14.23 3.38 20.94-4.85 6.72-14.23 8.23-20.94 3.38-10.16-7.34-26.9-6.29-38.99-2.01-12.09 4.29-25.75 14.03-29.02 26.13-1.81 6.69-7.86 11.09-14.47 11.09z" fill="#333333" p-id="969"></path></svg>